# xmcd CD database file
#
# Track frame offsets:
#	150
#	33995
#	56293
#	74347
#	95398
#	117725
#	130478
#	139885
#	153116
#	170110
#	190401
#	208610
#	223246
#	251133
#
# Disc length: 3620 seconds
#
# Revision: 5
# Processed by: cddbd v1.5.2PL0 Copyright (c) Steve Scherf et al.
# Submitted via: CDex 1.51
#
DISCID=dc0e220e
DTITLE=Various Artist - Peter Green Songbook [CD 2)
DYEAR=1995
DGENRE=Blues
TTITLE0=Billy Sheehan - Oh Well
TTITLE1=Jay Aston - I Loved Another Woman
TTITLE2=Zoot Money and Bobby Tench - Watcha Gonna Do
TTITLE3=Paul Jones and Bobby Tench - Albatros
TTITLE4=Jennifer Ferguson - Closing My Eyes
TTITLE5=Troy Turner - Lazy Poker Blues
TTITLE6=Pete McMahon - Evil Woman Blues
TTITLE7=Stu Hamm and Larry Mitchell - Fleetwood Mac
TTITLE8=Mick Abrahams - The Same Way
TTITLE9=Jon Paris - Watch Out
TTITLE10=Kim Lembo - A Fool No More
TTITLE11=Ken Hensley - Hellhound On My Trail
TTITLE12=Jim McCarty - Drifting
TTITLE13=Dave Peverett - If You Be My Baby
EXTD=YEAR: 1995
EXTT0=
EXTT1=
EXTT2=
EXTT3=
EXTT4=
EXTT5=
EXTT6=
EXTT7=
EXTT8=
EXTT9=
EXTT10=
EXTT11=
EXTT12=
EXTT13=
PLAYORDER=
